<?xml version="1.0" encoding="UTF-8" standalone="no"?>
<!-- Created with Inkscape (http://www.inkscape.org/) -->

<svg
   xmlns:dc="http://purl.org/dc/elements/1.1/"
   xmlns:cc="http://creativecommons.org/ns#"
   xmlns:rdf="http://www.w3.org/1999/02/22-rdf-syntax-ns#"
   xmlns:svg="http://www.w3.org/2000/svg"
   xmlns="http://www.w3.org/2000/svg"
   xmlns:sodipodi="http://sodipodi.sourceforge.net/DTD/sodipodi-0.dtd"
   xmlns:inkscape="http://www.inkscape.org/namespaces/inkscape"
   width="256mm"
   height="256mm"
   viewBox="0 0 256 256"
   version="1.1"
   id="svg8"
   inkscape:version="0.92.3 (2405546, 2018-03-11)"
   sodipodi:docname="knot.svg"
   inkscape:export-filename="/home/daniel/Work/ropu/Icon/knot32.png"
   inkscape:export-xdpi="3.175"
   inkscape:export-ydpi="3.175">
  <defs
     id="defs2">
    <clipPath
       clipPathUnits="userSpaceOnUse"
       id="clipPath836">
      <rect
         style="opacity:1;fill:#4285f4;fill-opacity:1;stroke:none;stroke-width:30;stroke-linejoin:miter;stroke-miterlimit:4;stroke-dasharray:none;stroke-opacity:1"
         id="rect838"
         width="192.0119"
         height="199.57143"
         x="16.630953"
         y="53.58334" />
    </clipPath>
    <clipPath
       clipPathUnits="userSpaceOnUse"
       id="clipPath844">
      <rect
         style="opacity:1;fill:#4285f4;fill-opacity:1;stroke:none;stroke-width:23.08636093;stroke-linejoin:miter;stroke-miterlimit:4;stroke-dasharray:none;stroke-opacity:1"
         id="rect846"
         width="182.01128"
         height="188.61572"
         x="24.345715"
         y="58.913143" />
    </clipPath>
  </defs>
  <sodipodi:namedview
     id="base"
     pagecolor="#ffffff"
     bordercolor="#666666"
     borderopacity="1.0"
     inkscape:pageopacity="0.0"
     inkscape:pageshadow="2"
     inkscape:zoom="0.49497475"
     inkscape:cx="-58.902376"
     inkscape:cy="602.64317"
     inkscape:document-units="mm"
     inkscape:current-layer="layer1"
     showgrid="false"
     inkscape:window-width="1869"
     inkscape:window-height="1025"
     inkscape:window-x="51"
     inkscape:window-y="27"
     inkscape:window-maximized="1" />
  <metadata
     id="metadata5">
    <rdf:RDF>
      <cc:Work
         rdf:about="">
        <dc:format>image/svg+xml</dc:format>
        <dc:type
           rdf:resource="http://purl.org/dc/dcmitype/StillImage" />
        <dc:title />
      </cc:Work>
    </rdf:RDF>
  </metadata>
  <g
     inkscape:label="Layer 1"
     inkscape:groupmode="layer"
     id="layer1"
     transform="translate(0,-41)">
    <path
       style="fill:#4285f4;fill-opacity:1;fill-rule:evenodd;stroke:none;stroke-width:0.26458332px;stroke-linecap:butt;stroke-linejoin:miter;stroke-opacity:1"
       d="m 89.391367,204.9628 c 9.494158,3.72606 19.209743,3.97361 31.183033,4.15774 l -0.75595,53.67262 C 109.46418,278.0041 80.316858,278.00755 78.241069,254.66667 77.624564,229.87421 85.48511,221.15115 89.391367,204.9628 Z"
       id="path864"
       inkscape:connector-curvature="0"
       sodipodi:nodetypes="ccccc" />
    <path
       style="fill:#4285f4;fill-rule:evenodd;stroke:none;stroke-width:0.26458332px;stroke-linecap:butt;stroke-linejoin:miter;stroke-opacity:1;fill-opacity:1"
       d="m 130.77976,221.59375 c -11.17975,7.37136 -7.27881,20.77498 -9.4494,31.75 42.0049,19.68176 67.88834,4.61284 87.31249,-24.37946 -1.87974,-8.38607 -10.90788,-11.41086 -18.52083,-15.49702 -16.73992,18.7423 -37.07017,18.55378 -59.34226,8.12648 z"
       id="path866"
       inkscape:connector-curvature="0"
       sodipodi:nodetypes="ccccc" />
    <path
       style="fill:#4285f4;fill-opacity:1;fill-rule:evenodd;stroke:none;stroke-width:0.26458332px;stroke-linecap:butt;stroke-linejoin:miter;stroke-opacity:1"
       d="m 151.37946,126.53274 c 10.17241,1.97498 19.36977,6.09504 27.0253,13.60715 -7.49988,27.02343 -10.9488,56.2974 -13.98512,85.80059 -10.69519,0.3792 -21.86187,1.77286 -33.45089,-8.12649 -0.50896,-42.37089 5.80391,-73.59944 20.41071,-91.28125 z"
       id="path868"
       inkscape:connector-curvature="0"
       sodipodi:nodetypes="ccccc" />
    <path
       style="fill:#4285f4;fill-rule:evenodd;stroke:none;stroke-width:0.26458332px;stroke-linecap:butt;stroke-linejoin:miter;stroke-opacity:1;fill-opacity:1"
       d="M 86.036829,203.47452 60.098214,188.14286 c -3.938643,13.12665 -9.413878,57.75434 -8.126489,60.66518 1.030342,3.06743 8.551237,15.42173 26.363839,14.74107 -3.416468,-4.85857 -3.094681,-9.63839 -3.071057,-12.44959 0.974585,-27.6308 9.553517,-38.04456 10.772322,-47.625 z"
       id="path872"
       inkscape:connector-curvature="0"
       sodipodi:nodetypes="cccccc" />
    <path
       style="fill:#4285f4;fill-opacity:1;fill-rule:evenodd;stroke:none;stroke-width:0.26458332px;stroke-linecap:butt;stroke-linejoin:miter;stroke-opacity:1"
       d="m 75.21726,122.75298 c -6.660616,7.29815 -11.860637,15.14403 -12.851188,24.56846 15.131618,14.43871 42.122968,19.67912 67.547028,27.2562 1.41682,-13.03163 3.71653,-23.47891 8.07113,-34.01785 C 120.3124,129.91898 96.863849,128.09411 75.21726,122.75298 Z"
       id="path874"
       inkscape:connector-curvature="0"
       sodipodi:nodetypes="ccccc" />
    <path
       style="fill:#4285f4;fill-rule:evenodd;stroke:none;stroke-width:0.26458332px;stroke-linecap:butt;stroke-linejoin:miter;stroke-opacity:1;fill-opacity:1"
       d="m 60.402914,149.86813 c -6.377637,7.99204 -10.14784,16.41874 -8.68626,26.19242 19.51619,22.81204 49.423596,31.51621 75.770906,30.46872 -0.12435,-10.42616 0.0682,-18.93833 1.87089,-29.26601 -33.199329,-8.53088 -59.868473,-17.44588 -68.955536,-27.39513 z"
       id="path876"
       inkscape:connector-curvature="0"
       sodipodi:nodetypes="ccccc" />
    <path
       style="fill:#4285f4;fill-opacity:1;fill-rule:evenodd;stroke:none;stroke-width:0.26458332px;stroke-linecap:butt;stroke-linejoin:miter;stroke-opacity:1"
       d="m 199.20295,154.42863 c -6.71283,-5.9794 -12.13023,-11.44341 -18.34134,-13.91076 -6.86015,26.21116 -10.9543,54.49682 -13.79613,83.72172 6.52744,-1.27463 16.09146,-5.59861 23.05654,-14.93006 3.83647,-3.71526 6.29346,-31.48393 9.08093,-54.8809 z"
       id="path867"
       inkscape:connector-curvature="0"
       sodipodi:nodetypes="ccccc" />
    <path
       style="fill:#4285f4;fill-rule:evenodd;stroke:none;stroke-width:0.26458332px;stroke-linecap:butt;stroke-linejoin:miter;stroke-opacity:1;fill-opacity:1"
       d="m 202.40624,159.22768 c -0.94709,10.07505 -2.33602,19.26645 -3.77976,28.34821 15.403,0.0302 32.09558,-3.43985 44.22322,5.48065 2.72469,-13.69168 4.1637,-25.69844 -9.63839,-40.44345 z"
       id="path869"
       inkscape:connector-curvature="0"
       sodipodi:nodetypes="ccccc" />
    <path
       style="fill:#4285f4;fill-rule:evenodd;stroke:none;stroke-width:0.26458332px;stroke-linecap:butt;stroke-linejoin:miter;stroke-opacity:1;fill-opacity:1"
       d="m 198.05952,191.73363 -5.43523,20.28454 c 6.00277,3.22222 13.55278,4.67617 16.32041,11.5957 2.32922,5.48032 4.93414,10.50115 8.76089,13.48559 15.20293,-11.43218 22.38359,-24.86992 25.52208,-39.31821 -12.07391,-8.97421 -28.6787,-7.37634 -45.16815,-6.04762 z"
       id="path871"
       inkscape:connector-curvature="0"
       sodipodi:nodetypes="cccccc" />
    <path
       style="fill:#4285f4;fill-opacity:1;fill-rule:evenodd;stroke:none;stroke-width:0.26458332px;stroke-linecap:butt;stroke-linejoin:miter;stroke-opacity:1"
       d="m 151.40818,95.478777 -2.93996,26.192413 c 22.41738,8.55114 43.6615,18.87124 54.79025,34.47777 l 20.71339,-4.00905 c 0.88452,-25.5648 -16.96485,-53.023729 -72.56368,-56.661133 z"
       id="path873"
       inkscape:connector-curvature="0"
       sodipodi:nodetypes="ccccc" />
    <path
       style="fill:#4285f4;fill-opacity:1;fill-rule:evenodd;stroke:none;stroke-width:0.26458332px;stroke-linecap:butt;stroke-linejoin:miter;stroke-opacity:1"
       d="m 208.7375,232.18714 1.87088,12.42803 c -25.80884,48.87055 -60.0398,38.46682 -93.54433,24.72243 3.9644,-2.56749 6.1011,-6.52102 6.1472,-12.29439 37.74266,16.91945 65.90968,4.42826 85.52625,-24.85607 z"
       id="path875"
       inkscape:connector-curvature="0"
       sodipodi:nodetypes="ccccc" />
    <path
       style="fill:#4285f4;fill-opacity:1;fill-rule:evenodd;stroke:none;stroke-width:0.26458332px;stroke-linecap:butt;stroke-linejoin:miter;stroke-opacity:1"
       d="m 14.741071,162.0625 c 20.830363,21.56349 32.348907,26.19641 41.519164,26.55971 -4.172615,16.02189 -4.306061,22.49665 -4.677217,29.53328 C 35.038782,213.55508 17.361788,208.0523 7.3499119,186.88495 4.9270576,181.45441 8.3030166,163.43386 14.741071,162.0625 Z"
       id="path877"
       inkscape:connector-curvature="0"
       sodipodi:nodetypes="ccccc" />
    <path
       style="fill:#4285f4;fill-rule:evenodd;stroke:none;stroke-width:0.26458332px;stroke-linecap:butt;stroke-linejoin:miter;stroke-opacity:1;fill-opacity:1"
       d="m 9.2207986,194.23486 c 7.5042004,12.6394 20.7373024,21.66018 41.8276794,26.59332 l -2.939963,27.26149 c -4.320831,-0.6206 -24.518094,-8.23842 -38.085908,-35.41321 -1.2941832,-2.553 -0.8499959,-11.1903 -0.8018084,-18.4416 z"
       id="path879"
       inkscape:connector-curvature="0"
       sodipodi:nodetypes="ccccc" />
    <path
       style="fill:#4285f4;fill-opacity:1;fill-rule:evenodd;stroke:none;stroke-width:0.26458332px;stroke-linecap:butt;stroke-linejoin:miter;stroke-opacity:1"
       d="m 34.611402,244.61517 c 14.102191,50.0175 68.556908,46.6929 95.949758,31.80507 l -13.4971,-4.94448 c -8.08832,5.83461 -25.034071,6.50306 -38.518921,-4.58759 -11.685054,0.0824 -22.038818,-4.67439 -28.177031,-16.07561 -6.495695,-0.82234 -10.962343,-3.67372 -15.756706,-6.19739 z"
       id="path889"
       inkscape:connector-curvature="0"
       sodipodi:nodetypes="cccccc" />
    <path
       style="fill:#4285f4;fill-opacity:1;fill-rule:evenodd;stroke:none;stroke-width:0.26458332px;stroke-linecap:butt;stroke-linejoin:miter;stroke-opacity:1"
       d="m 152.07636,80.244414 0.80181,10.95805 c 51.62323,5.328045 72.36402,29.576226 73.29866,60.202466 l 5.61266,-0.93545 C 236.0839,93.949115 202.65995,79.105682 152.07636,80.244414 Z"
       id="path891"
       inkscape:connector-curvature="0"
       sodipodi:nodetypes="ccccc" />
    <path
       style="fill:#4285f4;fill-opacity:1;fill-rule:evenodd;stroke:none;stroke-width:0.26458332px;stroke-linecap:butt;stroke-linejoin:miter;stroke-opacity:1"
       d="m 120.00402,61.001009 c -14.13119,21.269595 -9.86813,48.647151 -12.2944,65.748301 9.1667,2.02308 16.86556,3.84819 29.93418,10.42352 9.01404,-16.44738 11.45099,-40.567085 12.02713,-63.342883 -5.84427,-11.916308 -17.51918,-12.819166 -29.66691,-12.828938 z"
       id="path893"
       inkscape:connector-curvature="0"
       sodipodi:nodetypes="ccccc" />
    <path
       style="fill:#4285f4;fill-opacity:1;fill-rule:evenodd;stroke:none;stroke-width:0.26458332px;stroke-linecap:butt;stroke-linejoin:miter;stroke-opacity:1"
       d="m 112.52047,67.950016 c -8.97904,17.288623 -6.54934,37.129884 -8.28535,56.393874 L 79.379048,119.53304 C 77.267715,104.07777 74.403633,85.702159 82.586281,74.364484 91.12083,61.760849 101.13514,59.885492 112.52047,67.950016 Z"
       id="path895"
       inkscape:connector-curvature="0"
       sodipodi:nodetypes="ccccc" />
    <path
       style="fill:#4285f4;fill-rule:evenodd;stroke:none;stroke-width:0.26458332px;stroke-linecap:butt;stroke-linejoin:miter;stroke-opacity:1;fill-opacity:1"
       d="m 73.833206,97.550119 c -0.608602,0 2.023021,23.653351 2.004522,20.178851 C 55.156151,140.94128 45.545615,160.99934 51.315749,184.21226 41.186109,182.1794 33.856456,176.22657 27.261492,169.24517 24.24379,124.59324 47.893073,104.76875 73.833206,97.550119 Z"
       id="path897"
       inkscape:connector-curvature="0"
       sodipodi:nodetypes="ccccc" />
    <path
       style="fill:#4285f4;fill-rule:evenodd;stroke:none;stroke-width:0.26458332px;stroke-linecap:butt;stroke-linejoin:miter;stroke-opacity:1;fill-opacity:1"
       d="M 74.969102,83.585282 73.23185,94.14243 c -35.623618,12.4285 -51.269004,35.67215 -48.776688,73.23185 l -7.082643,-8.95353 C 5.015479,97.244745 40.4636,90.956147 74.969102,83.585282 Z"
       id="path899"
       inkscape:connector-curvature="0"
       sodipodi:nodetypes="ccccc" />
    <path
       style="fill:#4285f4;fill-rule:evenodd;stroke:none;stroke-width:0.26458332px;stroke-linecap:butt;stroke-linejoin:miter;stroke-opacity:1;fill-opacity:1"
       d="M 60.854166,75.505954 C 57.112399,74.722918 58.839415,79.864397 61.043152,85.522323 50.19659,87.540485 39.451015,90.669514 29.104166,98.184525 31.693203,70.415673 51.213682,67.816253 63.405507,72.671132 Z"
       id="path901"
       inkscape:connector-curvature="0"
       sodipodi:nodetypes="ccccc" />
    <path
       style="fill:#4285f4;fill-rule:evenodd;stroke:none;stroke-width:0.26458332px;stroke-linecap:butt;stroke-linejoin:miter;stroke-opacity:1;fill-opacity:1"
       d="m 28.489955,92.751117 c -0.582886,1.873789 -0.943512,4.192096 -0.897699,7.323283 -9.945611,8.53748 -11.693652,17.19996 -13.512647,26.74182 -2.269567,-17.41959 3.357421,-31.294918 14.410346,-34.065103 z"
       id="path903"
       inkscape:connector-curvature="0"
       sodipodi:nodetypes="cccc" />
    <path
       style="fill:#4285f4;fill-opacity:1;fill-rule:evenodd;stroke:none;stroke-width:0.26458332px;stroke-linecap:butt;stroke-linejoin:miter;stroke-opacity:1"
       d="m 62.460563,84.577382 c 3.58914,-0.929805 1.790337,-1.150671 13.98512,-3.212798 5.559801,-16.493428 18.53786,-23.184203 35.011257,-19.131198 10.05892,-8.508664 43.39112,1.076364 45.0252,14.595483 7.5996,-1.157666 16.54358,1.669404 25.17316,2.34614 -10.65133,-29.284183 -88.276202,-54.36066 -121.746075,-1.731928 0.37725,2.12622 0.919173,4.397655 2.551338,7.134301 z"
       id="path905"
       inkscape:connector-curvature="0"
       sodipodi:nodetypes="ccccccc" />
    <path
       style="fill:#4285f4;fill-opacity:1;fill-rule:evenodd;stroke:none;stroke-width:0.26458332px;stroke-linecap:butt;stroke-linejoin:miter;stroke-opacity:1"
       d="m 12.160763,130.09018 c 0.006,8.97655 -0.104129,17.93859 2.672696,27.26149 -11.5671229,8.01191 -11.8344837,22.77037 -7.3499125,34.61141 -0.8123908,3.55375 -0.7824091,9.07303 -0.5345391,15.10072 -6.51821979,-22.90422 -13.1755648,-42.65436 5.2117556,-76.97362 z"
       id="path907"
       inkscape:connector-curvature="0"
       sodipodi:nodetypes="ccccc" />
    <path
       style="fill:#4285f4;fill-opacity:1;fill-rule:evenodd;stroke:none;stroke-width:0.26458332px;stroke-linecap:butt;stroke-linejoin:miter;stroke-opacity:1"
       d="m 184.328,78.64047 c 54.13669,11.025988 49.80013,53.28983 51.73584,68.929 l 7.45112,-3.56621 c 0.40755,-38.21987 -9.48738,-74.998385 -65.12143,-75.483064 1.68088,2.085227 3.22515,3.578474 5.93447,10.120274 z"
       id="path909"
       inkscape:connector-curvature="0"
       sodipodi:nodetypes="ccccc" />
    <path
       style="fill:#4285f4;fill-rule:evenodd;stroke:none;stroke-width:0.26458332px;stroke-linecap:butt;stroke-linejoin:miter;stroke-opacity:1;fill-opacity:1"
       d="m 238.31398,151.47917 8.31548,-2.07887 c 18.8497,36.96275 3.19416,72.51217 -31.94768,93.55779 30.15716,-21.26036 42.96765,-55.33804 23.6322,-91.47892 z"
       id="path911"
       inkscape:connector-curvature="0"
       sodipodi:nodetypes="cccc" />
  </g>
</svg>
