<?xml version="1.0" encoding="UTF-8" standalone="no"?>
<!-- Created with Inkscape (http://www.inkscape.org/) -->

<svg
   xmlns:dc="http://purl.org/dc/elements/1.1/"
   xmlns:cc="http://creativecommons.org/ns#"
   xmlns:rdf="http://www.w3.org/1999/02/22-rdf-syntax-ns#"
   xmlns:svg="http://www.w3.org/2000/svg"
   xmlns="http://www.w3.org/2000/svg"
   xmlns:sodipodi="http://sodipodi.sourceforge.net/DTD/sodipodi-0.dtd"
   xmlns:inkscape="http://www.inkscape.org/namespaces/inkscape"
   width="256mm"
   height="256mm"
   viewBox="0 0 256 256"
   version="1.1"
   id="svg8"
   inkscape:version="0.92.3 (2405546, 2018-03-11)"
   sodipodi:docname="rope.svg"
   inkscape:export-filename="/home/daniel/Work/ropu/Icon/rope32.png"
   inkscape:export-xdpi="3.175"
   inkscape:export-ydpi="3.175">
  <defs
     id="defs2" />
  <sodipodi:namedview
     id="base"
     pagecolor="#ffffff"
     bordercolor="#666666"
     borderopacity="1.0"
     inkscape:pageopacity="0.0"
     inkscape:pageshadow="2"
     inkscape:zoom="0.49497475"
     inkscape:cx="172.27281"
     inkscape:cy="215.31933"
     inkscape:document-units="mm"
     inkscape:current-layer="layer1"
     showgrid="false"
     inkscape:window-width="1869"
     inkscape:window-height="1025"
     inkscape:window-x="51"
     inkscape:window-y="27"
     inkscape:window-maximized="1" />
  <metadata
     id="metadata5">
    <rdf:RDF>
      <cc:Work
         rdf:about="">
        <dc:format>image/svg+xml</dc:format>
        <dc:type
           rdf:resource="http://purl.org/dc/dcmitype/StillImage" />
        <dc:title />
      </cc:Work>
    </rdf:RDF>
  </metadata>
  <g
     inkscape:label="Layer 1"
     inkscape:groupmode="layer"
     id="layer1"
     transform="translate(0,-41)">
    <path
       style="fill:#4285f4;fill-opacity:1;fill-rule:evenodd;stroke:none;stroke-width:0.26967815px;stroke-linecap:butt;stroke-linejoin:miter;stroke-opacity:1"
       d="m 117.08655,43.298478 c -9.76489,7.959256 -11.46852,23.098865 -14.22491,27.31328 -2.48447,5.362684 -11.210418,10.011938 -23.163544,13.318844 3.553542,-9.570929 0.932895,-25.23046 6.535773,-31.656382 6.909674,-8.027029 20.414721,-9.436389 30.852681,-8.975742 z"
       id="path890"
       inkscape:connector-curvature="0"
       sodipodi:nodetypes="ccccc" />
    <path
       style="fill:#4285f4;fill-opacity:1;fill-rule:evenodd;stroke:none;stroke-width:0.26967815px;stroke-linecap:butt;stroke-linejoin:miter;stroke-opacity:1"
       d="m 84.991989,49.955992 c -7.3237,10.267112 -4.983315,25.320727 -6.532873,30.116667 -0.985168,5.831269 -8.177758,12.63036 -18.836036,18.990993 0.909003,-10.173608 -5.7388,-24.581414 -2.025781,-32.265469 4.5521,-9.574972 17.206427,-14.517215 27.39469,-16.842191 z"
       id="path890-3"
       inkscape:connector-curvature="0"
       sodipodi:nodetypes="ccccc" />
    <path
       style="fill:#4285f4;fill-opacity:1;fill-rule:evenodd;stroke:none;stroke-width:0.26967815px;stroke-linecap:butt;stroke-linejoin:miter;stroke-opacity:1"
       d="m 55.528971,65.209962 c -4.433597,11.926036 1.703792,25.703201 1.441223,30.743348 0.549377,5.87328 -4.650432,14.43527 -13.312099,23.55946 C 41.917104,109.49551 31.783641,97.559368 33.393213,89.135153 35.326756,78.659051 46.282438,70.329479 55.528971,65.209962 Z"
       id="path890-3-5"
       inkscape:connector-curvature="0"
       sodipodi:nodetypes="ccccc" />
    <path
       style="fill:#4285f4;fill-opacity:1;fill-rule:evenodd;stroke:none;stroke-width:0.26967815px;stroke-linecap:butt;stroke-linejoin:miter;stroke-opacity:1"
       d="m 31.280353,88.429297 c -1.343267,12.658253 8.010974,24.471863 9.003898,29.419433 1.98557,5.55198 -0.932357,15.14289 -7.064431,26.14218 -4.165298,-9.26866 -16.934679,-18.30186 -17.460287,-26.86346 -0.719562,-10.62998 7.83121,-21.431993 15.52082,-28.698153 z"
       id="path890-3-5-6"
       inkscape:connector-curvature="0"
       sodipodi:nodetypes="ccccc" />
    <path
       style="fill:#4285f4;fill-opacity:1;fill-rule:evenodd;stroke:none;stroke-width:0.26967815px;stroke-linecap:butt;stroke-linejoin:miter;stroke-opacity:1"
       d="m 13.749407,115.71933 c 1.928934,12.58169 13.983475,21.59669 16.20477,26.1241 3.334959,4.85646 2.959647,14.87786 -0.163595,27.08704 C 23.400918,161.0416 8.7539733,155.59232 6.0629602,147.4512 2.6570956,137.36051 8.1687163,124.72022 13.749407,115.71933 Z"
       id="path890-3-5-6-2"
       inkscape:connector-curvature="0"
       sodipodi:nodetypes="ccccc" />
    <path
       style="fill:#4285f4;fill-opacity:1;fill-rule:evenodd;stroke:none;stroke-width:0.26967815px;stroke-linecap:butt;stroke-linejoin:miter;stroke-opacity:1"
       d="m 4.0397517,147.34851 c 5.162118,11.62677 19.1561743,17.13387 22.4869343,20.91359 4.491415,3.80249 6.758908,13.5691 6.949629,26.17319 -8.233866,-5.91957 -23.7931001,-7.30106 -28.5251952,-14.44253 -5.9332372,-8.83303 -3.9330951,-22.4849 -0.9113681,-32.64425 z"
       id="path890-3-5-6-2-9"
       inkscape:connector-curvature="0"
       sodipodi:nodetypes="ccccc" />
    <path
       style="fill:#4285f4;fill-opacity:1;fill-rule:evenodd;stroke:none;stroke-width:0.26967815px;stroke-linecap:butt;stroke-linejoin:miter;stroke-opacity:1"
       d="m 1.8733001,180.26556 c 8.1173768,9.77807 23.0756339,11.2546 27.3047779,13.98188 5.352203,2.43212 10.180169,11.21095 13.778432,23.28755 -9.527064,-3.44698 -24.873739,-0.52594 -31.362147,-6.10537 -8.1025214,-6.87904 -9.8764227,-20.56243 -9.7210629,-31.16406 z"
       id="path890-3-5-6-2-9-1"
       inkscape:connector-curvature="0"
       sodipodi:nodetypes="ccccc" />
    <path
       style="fill:#4285f4;fill-opacity:1;fill-rule:evenodd;stroke:none;stroke-width:0.26967815px;stroke-linecap:butt;stroke-linejoin:miter;stroke-opacity:1"
       d="m 9.9541543,213.06671 c 10.2253077,7.35321 25.2164697,5.00176 29.9927207,6.55734 5.807238,0.98873 12.578852,8.2106 18.914126,18.91258 -10.131623,-0.91189 -24.479264,5.76479 -32.131881,2.03702 C 17.193345,236.0035 12.27041,223.29707 9.9541543,213.06671 Z"
       id="path890-2"
       inkscape:connector-curvature="0"
       sodipodi:nodetypes="ccccc" />
    <path
       style="fill:#4285f4;fill-opacity:1;fill-rule:evenodd;stroke:none;stroke-width:0.26967815px;stroke-linecap:butt;stroke-linejoin:miter;stroke-opacity:1"
       d="m 24.830792,242.38904 c 11.796698,4.37908 25.63646,-1.86604 30.652276,-1.63291 5.86105,-0.58709 14.292218,4.58158 23.218231,13.2225 -10.011525,1.8085 -22.092593,12.05444 -30.4541,10.48946 -10.399407,-1.87786 -18.490668,-12.82671 -23.416394,-22.07901 z"
       id="path890-3-7"
       inkscape:connector-curvature="0"
       sodipodi:nodetypes="ccccc" />
    <path
       style="fill:#4285f4;fill-opacity:1;fill-rule:evenodd;stroke:none;stroke-width:0.26967815px;stroke-linecap:butt;stroke-linejoin:miter;stroke-opacity:1"
       d="m 47.268418,266.89085 c 12.626186,1.14174 24.236462,-8.44321 29.146684,-9.521 5.495818,-2.08429 15.093506,0.68856 26.146088,6.66544 -9.160979,4.33356 -17.946899,17.30193 -26.463364,17.96961 -10.57285,0.89623 -21.468532,-7.51231 -28.829408,-15.11405 z"
       id="path890-3-5-0"
       inkscape:connector-curvature="0"
       sodipodi:nodetypes="ccccc" />
    <path
       style="fill:#4285f4;fill-opacity:1;fill-rule:evenodd;stroke:none;stroke-width:0.26967815px;stroke-linecap:butt;stroke-linejoin:miter;stroke-opacity:1"
       d="m 75.978295,284.23764 c 12.512684,-2.04461 21.386848,-14.22596 25.876365,-16.49515 4.80764,-3.39028 14.79046,-3.09923 26.97544,-0.0678 -7.80127,6.48353 -13.10237,21.23739 -21.18649,24.0092 -10.019407,3.50632 -22.654185,-1.91975 -31.665315,-7.44634 z"
       id="path890-3-5-6-9"
       inkscape:connector-curvature="0"
       sodipodi:nodetypes="ccccc" />
    <path
       style="fill:#4285f4;fill-opacity:1;fill-rule:evenodd;stroke:none;stroke-width:0.26967815px;stroke-linecap:butt;stroke-linejoin:miter;stroke-opacity:1"
       d="m 106.82243,294.00285 c 11.57436,-5.19336 17.04692,-19.25013 20.8082,-22.5979 3.783,-4.51326 13.5073,-6.79838 26.0591,-7.00049 -5.88816,8.27302 -7.25083,23.89802 -14.35879,28.65576 -8.7915,5.96531 -22.38861,3.96836 -32.50851,0.94263 z"
       id="path890-3-5-6-2-3"
       inkscape:connector-curvature="0"
       sodipodi:nodetypes="ccccc" />
    <path
       style="fill:#4285f4;fill-opacity:1;fill-rule:evenodd;stroke:none;stroke-width:0.26967815px;stroke-linecap:butt;stroke-linejoin:miter;stroke-opacity:1"
       d="m 139.76703,295.04673 c 9.80267,-8.07211 11.39343,-23.08011 14.14341,-27.30472 2.46506,-5.35468 11.24614,-10.13187 23.3014,-13.64775 -3.50931,9.53856 -0.72397,24.97196 -6.33238,31.4422 -6.91559,8.08053 -20.55622,9.75161 -31.11243,9.51027 z"
       id="path890-3-5-6-2-9-6"
       inkscape:connector-curvature="0"
       sodipodi:nodetypes="ccccc" />
    <path
       style="fill:#4285f4;fill-opacity:1;fill-rule:evenodd;stroke:none;stroke-width:0.26967815px;stroke-linecap:butt;stroke-linejoin:miter;stroke-opacity:1"
       d="m 171.95492,288.44506 c 7.24603,-10.44552 4.7108,-25.32204 6.21248,-30.13855 0.92141,-5.82611 8.07706,-12.82193 18.72509,-19.49842 -0.79272,10.13747 6.06885,24.22788 2.42488,31.98619 -4.46556,9.66494 -17.13898,14.99927 -27.36245,17.65078 z"
       id="path890-3-5-6-2-9-1-0"
       inkscape:connector-curvature="0"
       sodipodi:nodetypes="ccccc" />
    <path
       style="fill:#4285f4;fill-opacity:1;fill-rule:evenodd;stroke:none;stroke-width:0.26967815px;stroke-linecap:butt;stroke-linejoin:miter;stroke-opacity:1"
       d="m 200.85599,272.76984 c 4.3939,-11.8334 -1.7867,-25.74802 -1.54053,-30.78398 -0.56827,-5.88701 4.60258,-14.33872 13.23265,-23.27764 1.77303,10.05814 11.9428,22.21793 10.36092,30.60977 -1.89915,10.43732 -12.82527,18.53154 -22.05304,23.45185 z"
       id="path890-2-6"
       inkscape:connector-curvature="0"
       sodipodi:nodetypes="ccccc" />
    <path
       style="fill:#4285f4;fill-opacity:1;fill-rule:evenodd;stroke:none;stroke-width:0.26967815px;stroke-linecap:butt;stroke-linejoin:miter;stroke-opacity:1"
       d="m 225.15043,250.6831 c 1.12422,-12.57862 -8.49792,-24.35902 -9.58556,-29.28136 -2.09705,-5.52705 0.66628,-15.05027 6.63771,-25.96114 4.35627,9.23039 17.36433,18.2599 18.04672,26.77319 0.9146,10.57025 -7.49359,21.27565 -15.09886,28.46931 z"
       id="path890-3-7-2"
       inkscape:connector-curvature="0"
       sodipodi:nodetypes="ccccc" />
    <path
       style="fill:#4285f4;fill-opacity:1;fill-rule:evenodd;stroke:none;stroke-width:0.26967815px;stroke-linecap:butt;stroke-linejoin:miter;stroke-opacity:1"
       d="m 242.83408,222.52885 c -2.20448,-12.53598 -14.45385,-21.28216 -16.77392,-25.75932 -3.44067,-4.78151 -3.28532,-14.8088 -0.43069,-27.08406 6.56118,7.7456 21.32412,12.86957 24.19308,20.9492 3.62639,10.01291 -1.60657,22.77201 -6.98847,31.89418 z"
       id="path890-3-5-0-6"
       inkscape:connector-curvature="0"
       sodipodi:nodetypes="ccccc" />
    <path
       style="fill:#4285f4;fill-opacity:1;fill-rule:evenodd;stroke:none;stroke-width:0.26967815px;stroke-linecap:butt;stroke-linejoin:miter;stroke-opacity:1"
       d="m 251.99994,190.16662 c -5.23755,-11.5927 -19.26705,-17.00801 -22.62231,-20.76589 -4.51602,-3.77297 -6.84691,-13.52452 -7.11952,-26.12709 8.27214,5.86555 23.83993,7.14531 28.61839,14.25541 5.99053,8.79393 4.07907,22.45864 1.12342,32.63757 z"
       id="path890-3-5-6-9-1"
       inkscape:connector-curvature="0"
       sodipodi:nodetypes="ccccc" />
    <path
       style="fill:#4285f4;fill-opacity:1;fill-rule:evenodd;stroke:none;stroke-width:0.26967815px;stroke-linecap:butt;stroke-linejoin:miter;stroke-opacity:1"
       d="m 253.32017,157.71851 c -8.01873,-9.85983 -22.96137,-11.48784 -27.1629,-14.25782 -5.32749,-2.48623 -10.067,-11.31351 -13.54374,-23.42593 9.49193,3.54333 24.86718,0.77789 31.2992,6.42277 8.03301,6.96077 9.66933,20.66142 9.40744,31.26098 z"
       id="path890-3-5-6-2-3-8"
       inkscape:connector-curvature="0"
       sodipodi:nodetypes="ccccc" />
    <path
       style="fill:#4285f4;fill-opacity:1;fill-rule:evenodd;stroke:none;stroke-width:0.26967815px;stroke-linecap:butt;stroke-linejoin:miter;stroke-opacity:1"
       d="m 245.70813,125.51537 c -10.32253,-7.38984 -25.16434,-5.00685 -29.94425,-6.56733 -5.79161,-0.98886 -12.67985,-8.25025 -19.21195,-19.014831 10.08628,0.906771 24.1926,-5.828835 31.87851,-2.085181 9.57561,4.589472 14.74908,17.373062 17.27769,27.667342 z"
       id="path890-3-5-6-2-9-6-7"
       inkscape:connector-curvature="0"
       sodipodi:nodetypes="ccccc" />
    <path
       style="fill:#4285f4;fill-opacity:1;fill-rule:evenodd;stroke:none;stroke-width:0.26967815px;stroke-linecap:butt;stroke-linejoin:miter;stroke-opacity:1"
       d="m 230.94498,96.045054 c -11.93526,-4.291254 -25.5717,2.056314 -30.59407,1.860446 -5.84108,0.630573 -14.43684,-4.47524 -23.63892,-13.049401 9.95151,-1.882769 21.70096,-12.217886 30.11126,-10.71502 10.45782,1.80054 18.89951,12.688714 24.12173,21.903975 z"
       id="path890-3-5-6-2-9-1-0-9"
       inkscape:connector-curvature="0"
       sodipodi:nodetypes="ccccc" />
    <path
       style="fill:#4285f4;fill-opacity:1;fill-rule:evenodd;stroke:none;stroke-width:0.26967815px;stroke-linecap:butt;stroke-linejoin:miter;stroke-opacity:1"
       d="m 209.51928,72.521108 c -12.61805,-1.229129 -24.29388,8.275171 -29.21137,9.318954 -5.51001,2.046226 -15.08839,-0.793044 -26.09967,-6.846296 9.19051,-4.270032 18.06525,-17.177263 26.58612,-17.785963 10.57876,-0.822998 21.41645,7.660762 28.72492,15.313305 z"
       id="path890-3-5-6-2-3-8-2"
       inkscape:connector-curvature="0"
       sodipodi:nodetypes="ccccc" />
    <path
       style="fill:#4285f4;fill-opacity:1;fill-rule:evenodd;stroke:none;stroke-width:0.26967815px;stroke-linecap:butt;stroke-linejoin:miter;stroke-opacity:1"
       d="m 181.35852,55.396233 c -12.54597,1.82762 -21.62804,13.853477 -26.15583,16.044587 -4.86518,3.306504 -14.8415,2.842618 -26.9726,-0.3995 7.91143,-6.347454 13.46516,-21.00732 21.5957,-23.638707 10.07817,-3.332258 22.61786,2.311778 31.53273,7.99362 z"
       id="path890-3-5-6-2-9-6-7-0"
       inkscape:connector-curvature="0"
       sodipodi:nodetypes="ccccc" />
    <path
       style="fill:#4285f4;fill-opacity:1;fill-rule:evenodd;stroke:none;stroke-width:0.26967815px;stroke-linecap:butt;stroke-linejoin:miter;stroke-opacity:1"
       d="m 150.40106,44.35424 c -11.5776,5.185941 -17.05906,19.239253 -20.82246,22.584617 -3.78586,4.510838 -13.51162,6.789774 -26.06354,6.983876 5.89338,-8.269275 7.26593,-23.893408 14.37693,-28.646618 8.79526,-5.959685 22.39108,-3.954045 32.50907,-0.921875 z"
       id="path890-3-5-6-2-9-1-0-9-2"
       inkscape:connector-curvature="0"
       sodipodi:nodetypes="ccccc" />
  </g>
</svg>
