<?xml version="1.0" encoding="UTF-8" standalone="no"?>
<!-- Created with Inkscape (http://www.inkscape.org/) -->

<svg
   xmlns:dc="http://purl.org/dc/elements/1.1/"
   xmlns:cc="http://creativecommons.org/ns#"
   xmlns:rdf="http://www.w3.org/1999/02/22-rdf-syntax-ns#"
   xmlns:svg="http://www.w3.org/2000/svg"
   xmlns="http://www.w3.org/2000/svg"
   xmlns:sodipodi="http://sodipodi.sourceforge.net/DTD/sodipodi-0.dtd"
   xmlns:inkscape="http://www.inkscape.org/namespaces/inkscape"
   width="256mm"
   height="256mm"
   viewBox="0 0 256 256"
   version="1.1"
   id="svg8"
   inkscape:version="0.92.3 (2405546, 2018-03-11)"
   sodipodi:docname="Ropu.svg"
   inkscape:export-filename="/home/daniel/Work/ropu/Icon/Ropu16.png"
   inkscape:export-xdpi="1.5875"
   inkscape:export-ydpi="1.5875">
  <defs
     id="defs2" />
  <sodipodi:namedview
     id="base"
     pagecolor="#ffffff"
     bordercolor="#666666"
     borderopacity="1.0"
     inkscape:pageopacity="0.0"
     inkscape:pageshadow="2"
     inkscape:zoom="0.24748738"
     inkscape:cx="73.384896"
     inkscape:cy="821.33325"
     inkscape:document-units="mm"
     inkscape:current-layer="layer1"
     showgrid="false"
     inkscape:window-width="1869"
     inkscape:window-height="1025"
     inkscape:window-x="51"
     inkscape:window-y="27"
     inkscape:window-maximized="1" />
  <metadata
     id="metadata5">
    <rdf:RDF>
      <cc:Work
         rdf:about="">
        <dc:format>image/svg+xml</dc:format>
        <dc:type
           rdf:resource="http://purl.org/dc/dcmitype/StillImage" />
        <dc:title />
      </cc:Work>
    </rdf:RDF>
  </metadata>
  <g
     inkscape:label="Layer 1"
     inkscape:groupmode="layer"
     id="layer1"
     transform="translate(0,-41)">
    <path
       style="fill:#4285f4;fill-opacity:1;fill-rule:evenodd;stroke:none;stroke-width:0.26769322px;stroke-linecap:butt;stroke-linejoin:miter;stroke-opacity:1"
       d="m 77.613,198.77683 c -6.401095,18.53269 -22.846283,44.24702 -33.818787,52.56791 42.29687,35.14097 142.056647,-8.87368 148.359147,-39.88907 -11.6257,-25.23726 -28.52269,-42.32543 -55.31136,-53.49075 -17.29374,16.40471 -32.55481,32.4933 -59.229,40.81191 z"
       id="path4733"
       inkscape:connector-curvature="0"
       sodipodi:nodetypes="ccccc" />
    <path
       style="fill:#ea4335;fill-opacity:1;fill-rule:evenodd;stroke:none;stroke-width:0.2618745px;stroke-linecap:butt;stroke-linejoin:miter;stroke-opacity:1"
       d="M 70.001686,194.27606 C 52.352026,226.15666 49.712131,249.68539 0,264.532 v -85.09396 c 7.2782382,-3.47031 14.034754,-10.89575 17.12856,-14.87632 15.507707,3.99388 44.258617,19.64426 52.873126,29.71434 z"
       id="path4735"
       inkscape:connector-curvature="0"
       sodipodi:nodetypes="ccccc" />
    <path
       style="fill:#34a853;fill-opacity:1;fill-rule:evenodd;stroke:none;stroke-width:0.26458332px;stroke-linecap:butt;stroke-linejoin:miter;stroke-opacity:1"
       d="m 0,73.967805 v 80.858225 c 25.672953,5.46823 51.384275,17.25829 75.041705,34.81966 20.833824,-7.59995 33.168785,-18.97895 47.186345,-31.32338 C 96.834646,109.68687 80.588524,68.336919 0,73.967805 Z"
       id="path4737"
       inkscape:connector-curvature="0"
       sodipodi:nodetypes="ccccc" />
    <path
       style="fill:#ea4335;fill-opacity:1;fill-rule:evenodd;stroke:none;stroke-width:0.26458332px;stroke-linecap:butt;stroke-linejoin:miter;stroke-opacity:1"
       d="m 89.534499,93.773382 c 12.104171,12.016098 27.041651,32.980828 37.442571,55.825828 23.67447,-2.54937 59.84958,22.6932 74.8812,56.27259 14.67225,-7.57894 30.80254,-14.21771 42.53576,-31.59343 C 190.81466,60.644442 121.79354,58.950477 89.534499,93.773382 Z"
       id="path4739"
       inkscape:connector-curvature="0"
       sodipodi:nodetypes="ccccc" />
    <path
       style="fill:#4285f4;fill-opacity:1;fill-rule:evenodd;stroke:none;stroke-width:0.26458332px;stroke-linecap:butt;stroke-linejoin:miter;stroke-opacity:1"
       d="m 196.07236,93.945007 c 22.46213,19.074133 39.72355,44.493673 51.2482,69.533703 3.01125,-2.97022 3.47507,-3.23422 8.67944,-7.06806 V 74.683609 c -22.36396,-2.267835 -46.59703,2.45883 -59.92764,19.261398 z"
       id="path4741"
       inkscape:connector-curvature="0"
       sodipodi:nodetypes="ccccc" />
    <path
       style="fill:#34a853;fill-opacity:1;fill-rule:evenodd;stroke:none;stroke-width:0.26458332px;stroke-linecap:butt;stroke-linejoin:miter;stroke-opacity:1"
       d="m 200.32738,217.57007 c -8.12916,17.15771 -24.88304,29.58412 -46.11309,39.68751 18.94357,9.03307 71.16047,11.72526 101.78571,-6.4256 v -75.6031 c -16.64346,19.80146 -38.79204,35.67144 -55.67262,42.34119 z"
       id="path4743"
       inkscape:connector-curvature="0"
       sodipodi:nodetypes="ccccc" />
  </g>
</svg>
